<svg xmlns="http://www.w3.org/2000/svg" version="1.1" xmlns:xlink="http://www.w3.org/1999/xlink" xmlns:svgjs="http://svgjs.dev/svgjs" width="1440" height="1080" preserveAspectRatio="none" viewBox="0 0 1440 1080"><g mask="url(&quot;#SvgjsMask1008&quot;)" fill="none"><rect width="1440" height="1080" x="0" y="0" fill="#0e2a47"></rect><path d="M1137.455,991.996C1231.447,995.983,1343.931,1004.12,1391.581,923.003C1439.511,841.409,1379.832,745.524,1329.199,665.58C1283.381,593.238,1223.048,524.324,1137.455,521.765C1048.116,519.094,969.346,576.02,924.767,653.488C880.305,730.752,870.691,827.437,918.117,902.918C963.114,974.533,1052.953,988.411,1137.455,991.996" fill="rgba(187, 123, 135, 1)" class="triangle-float2"></path><path d="M445.111,275.668C503.514,274.482,553.72,238.368,583.022,187.834C612.429,137.119,618.477,75.765,591.074,23.94C561.814,-31.397,507.707,-73.298,445.111,-72.985C382.968,-72.674,331.811,-28.95,301.656,25.387C272.477,77.966,267.242,141.469,297.145,193.64C327.202,246.08,384.68,276.895,445.111,275.668" fill="rgba(187, 123, 135, 1)" class="triangle-float3"></path><path d="M1080.331,635.28C1136.674,635.228,1187.481,605.753,1218.037,558.416C1251.742,506.201,1271.671,440.198,1241.232,386.015C1210.335,331.016,1143.261,308.887,1080.331,313.289C1024.523,317.193,981.649,357.343,954.204,406.092C927.379,453.739,915.823,510.765,942.186,558.669C969.396,608.112,1023.895,635.332,1080.331,635.28" fill="rgba(187, 123, 135, 1)" class="triangle-float3"></path><path d="M36.422,404.374C80.595,406.329,129.29,400.114,152.986,362.784C177.973,323.421,170.678,271.753,145.526,232.495C122.261,196.183,79.532,182.007,36.422,180.848C-9.329,179.618,-60.371,186.753,-83.334,226.344C-106.348,266.023,-89.145,315.141,-63.543,353.201C-41.149,386.492,-3.661,402.6,36.422,404.374" fill="rgba(187, 123, 135, 1)" class="triangle-float3"></path><path d="M234.549,1374.442C319.3,1374.791,386.448,1314.404,431.976,1242.919C482.173,1164.102,524.193,1069.455,481.838,986.161C436.484,896.968,334.4,848.166,234.549,854.663C143.922,860.56,78.187,933.961,37.352,1015.082C1.01,1087.277,1.036,1170.444,39.919,1241.303C80.448,1315.161,150.303,1374.095,234.549,1374.442" fill="rgba(187, 123, 135, 1)" class="triangle-float1"></path><path d="M1093.111,60.3C1128.236,59.467,1154.576,32.043,1171.942,1.5C1189.063,-28.611,1199.428,-65.41,1181.406,-94.99C1163.891,-123.738,1126.66,-130.655,1093.111,-127.885C1064.478,-125.521,1042.43,-106.411,1026.907,-82.236C1009.581,-55.254,994.016,-23.682,1007.524,5.4C1022.827,38.347,1056.794,61.161,1093.111,60.3" fill="rgba(187, 123, 135, 1)" class="triangle-float2"></path></g><defs><mask id="SvgjsMask1008"><rect width="1440" height="1080" fill="#ffffff"></rect></mask><style>
                @keyframes float1 {
                    0%{transform: translate(0, 0)}
                    50%{transform: translate(-10px, 0)}
                    100%{transform: translate(0, 0)}
                }

                .triangle-float1 {
                    animation: float1 5s infinite;
                }

                @keyframes float2 {
                    0%{transform: translate(0, 0)}
                    50%{transform: translate(-5px, -5px)}
                    100%{transform: translate(0, 0)}
                }

                .triangle-float2 {
                    animation: float2 4s infinite;
                }

                @keyframes float3 {
                    0%{transform: translate(0, 0)}
                    50%{transform: translate(0, -10px)}
                    100%{transform: translate(0, 0)}
                }

                .triangle-float3 {
                    animation: float3 6s infinite;
                }
            </style></defs></svg>